<?xml version="1.0" standalone="no"?>
<!DOCTYPE svg PUBLIC "-//W3C//DTD SVG 20010904//EN"
 "http://www.w3.org/TR/2001/REC-SVG-20010904/DTD/svg10.dtd">
<svg version="1.0" xmlns="http://www.w3.org/2000/svg"
 width="80.000000pt" height="80.000000pt" viewBox="0 0 80.000000 80.000000"
 preserveAspectRatio="xMidYMid meet">
<metadata>
Created by potrace 1.14, written by Peter Selinger 2001-2017
</metadata>
<g transform="translate(0.000000,80.000000) scale(0.100000,-0.100000)"
fill="#000000" stroke="none">
<path d="M63 589 c-28 -15 -28 -23 -4 -63 10 -17 21 -47 25 -67 9 -48 39 -86
76 -94 l30 -7 0 -134 c0 -151 9 -136 -92 -149 -137 -18 31 -40 302 -40 189 0
350 12 350 25 0 5 -21 12 -47 15 -102 13 -93 -2 -93 149 l0 134 30 7 c37 8 67
46 76 94 4 20 16 51 27 70 l20 34 -24 19 c-22 18 -34 19 -149 12 -155 -9 -221
-9 -380 0 -87 4 -132 3 -147 -5z m353 -67 c7 -4 17 -27 24 -51 16 -59 36 -88
70 -99 27 -10 29 -13 27 -64 -2 -51 -3 -53 -37 -65 -46 -15 -156 -15 -200 1
-33 12 -35 15 -37 65 -2 49 0 52 31 65 33 14 57 51 72 111 6 27 20 45 34 45 3
0 10 -4 16 -8z m-16 -367 c41 0 77 6 97 16 36 19 43 16 43 -20 0 -46 -8 -49
-139 -52 -118 -2 -125 -1 -134 19 -5 11 -7 32 -3 46 6 24 6 24 38 8 21 -11 57
-17 98 -17z"/>
</g>
</svg>
