<?xml version="1.0" standalone="no"?>
<!DOCTYPE svg PUBLIC "-//W3C//DTD SVG 20010904//EN"
 "http://www.w3.org/TR/2001/REC-SVG-20010904/DTD/svg10.dtd">
<svg version="1.0" xmlns="http://www.w3.org/2000/svg"
 width="700.000000pt" height="700.000000pt" viewBox="0 0 700.000000 700.000000"
 preserveAspectRatio="xMidYMid meet">
<metadata>
Created by potrace 1.14, written by Peter Selinger 2001-2017
</metadata>
<g transform="translate(0.000000,700.000000) scale(0.100000,-0.100000)"
fill="#000000" stroke="none">
<path d="M0 5055 l0 -1945 389 0 388 0 0 1945 1 1945 -389 0 -389 0 0 -1945z"/>
<path d="M1555 5835 c0 -641 2 -1165 5 -1166 3 0 177 -2 388 -2 376 -2 382 -2
383 18 1 11 2 536 3 1168 l1 1147 -390 0 -390 0 0 -1165z"/>
<path d="M6307 6994 c-1 -1 -54 -5 -117 -8 -63 -4 -124 -9 -135 -11 -11 -3
-47 -7 -80 -10 -33 -3 -71 -7 -85 -9 -14 -2 -47 -7 -75 -11 -190 -24 -498 -96
-684 -160 -248 -84 -408 -157 -604 -273 -745 -443 -1207 -1186 -1356 -2184
-40 -267 -48 -370 -56 -683 -9 -387 -17 -555 -30 -664 -3 -31 -8 -76 -11 -101
-32 -275 -119 -602 -225 -842 -150 -341 -383 -623 -674 -818 -44 -30 -91 -61
-105 -71 -39 -25 -252 -127 -324 -154 -128 -48 -328 -108 -405 -121 -14 -3
-34 -7 -43 -10 -10 -3 -29 -7 -43 -10 -14 -2 -51 -8 -83 -13 -31 -6 -77 -13
-102 -16 -25 -3 -52 -8 -60 -10 -8 -2 -51 -7 -95 -10 -44 -4 -93 -9 -110 -11
-63 -8 -347 -17 -569 -18 l-231 -1 -3 -389 -2 -389 397 6 c219 3 407 8 418 10
11 3 61 8 110 12 93 7 126 10 185 19 19 3 55 8 80 11 25 3 52 8 60 10 8 2 35
7 60 10 183 25 514 115 717 196 127 50 152 61 289 130 715 361 1205 996 1427
1849 42 162 90 412 102 535 3 33 8 71 10 85 2 14 7 61 11 105 4 44 8 96 10
115 1 19 5 127 8 240 10 345 17 554 20 585 13 124 18 173 21 195 18 123 28
187 30 200 2 8 11 51 20 95 82 397 240 753 448 1009 71 88 230 242 318 308
162 122 351 223 564 301 68 25 258 83 299 91 12 3 54 12 93 20 40 9 87 18 105
21 18 3 40 8 48 10 8 2 40 7 70 10 30 3 62 8 70 10 14 4 60 8 198 20 155 13
245 16 517 17 l295 1 0 389 0 389 -345 -2 c-190 -2 -346 -4 -348 -5z"/>
<path d="M6470 5438 c-168 -15 -293 -38 -435 -81 -657 -201 -1170 -757 -1318
-1427 -43 -195 -49 -255 -51 -585 l-1 -230 390 0 389 0 2 255 c1 140 5 269 8
285 4 17 9 48 12 70 9 60 51 187 89 268 33 72 113 200 154 247 107 122 210
207 336 278 96 54 267 117 350 128 28 3 54 9 60 12 5 3 129 7 275 8 l265 1 0
389 0 389 -225 0 c-124 0 -259 -3 -300 -7z"/>
<path d="M1559 3888 c-1 -2 -2 -113 -3 -248 -2 -135 -6 -261 -9 -280 -4 -19
-9 -52 -13 -74 -12 -79 -33 -155 -46 -170 -4 -6 -8 -16 -8 -22 0 -18 -57 -139
-94 -199 -168 -275 -444 -470 -761 -537 -83 -17 -142 -21 -350 -24 -137 -1
-256 -3 -262 -3 -10 -1 -13 -86 -13 -389 l0 -388 248 2 c219 1 345 7 407 18
11 2 43 7 70 11 28 5 52 9 55 10 3 1 21 5 40 9 759 170 1349 793 1485 1568 20
112 27 233 28 488 l2 225 -388 3 c-213 1 -387 1 -388 0z"/>
<path d="M6227 3883 c-3 -5 -5 -880 -5 -1945 l1 -1938 388 0 389 0 0 1945 0
1945 -384 0 c-212 0 -387 -3 -389 -7z"/>
<path d="M4671 2320 c-4 -8 -6 -532 -6 -1165 l1 -1150 390 0 389 0 0 1164 0
1165 -383 0 c-332 1 -385 -1 -391 -14z"/>
</g>
</svg>
